<?xml version="1.0" encoding="UTF-8"?>
<!DOCTYPE svg PUBLIC "-//W3C//DTD SVG 1.1//EN" "http://www.w3.org/Graphics/SVG/1.1/DTD/svg11.dtd">
<svg xmlns="http://www.w3.org/2000/svg" width="758" height="973">
  <defs>
    <clipPath id="a">
      <path d="M.06.63h757.054v972.31H.06z"/>
    </clipPath>
  </defs>
  <g clip-path="url(#a)">
    <path fill="#DBA76F" d="M644.917 602.98c-9.212 5.606-18.122 11.744-27.864 16.427-16.029 7.706-32.726 11.947-50.63 8.696-7.461-1.354-12.758-5.489-14.714-13.097-.641-2.493-1.689-2.636-3.856-1.681-9.739 4.291-19.806 7.688-30.094 10.392-1.814.477-3.134.979-3.04 3.108-4.577-4.414-4.315-9.836.859-12.697 14.025-7.755 27.487-16.281 39.809-26.623 25.628-21.51 44.536-47.942 58.169-78.317 5.055-11.264 9.455-22.784 12.505-34.763.961-3.774 3.053-5.573 6.889-6 7.784-.868 15.55-1.898 22.562-5.861 13.722-7.755 19.902-20.41 21.614-35.227 1.139-9.862 1.245-19.937-.997-29.837-4.188-18.5-15.181-27.787-34.107-28.061-4.485-.065-4.678-2.867-5.17-5.787-.544-3.235.364-5.641 4.17-5.936.995-.078 1.996-.216 2.935-.577 3.381-1.301 5.068-3.746 4.61-7.378-.441-3.505-2.659-5.223-6.111-5.418-7.307-.415-14.61-.102-21.948-.781-20.217-1.871-39.716-6.822-58.962-12.876-46.588-14.654-90.796-34.874-133.501-58.375-16.517-9.09-31.4-20.639-45.518-33.227-29.679-26.463-53.217-57.695-72.819-92.073-5.037-8.834-9.168-18.139-13.813-27.178-.913-1.777-1.706-3.627-3.019-5.166-2.113-2.475-4.889-2.701-7.778-2.042-2.815.643-4.522 2.917-4.312 5.455.423 5.117-2.71 6.309-6.553 7.75-31.37 11.755-59.674 28.453-84.356 51.365-30.957 28.738-52.412 63.513-67.065 102.785-10.185 27.298-16.456 55.53-19.61 84.465-.325 2.978-1.444 4.674-4.548 4.757-.832.023-1.664.1-2.49.209-17.961 2.357-27.145 10.393-30.975 28.204-3.58 16.65-3.358 33.189 4.895 48.67 6.762 12.682 17.699 19.538 31.869 21.368.824.106 1.662.117 2.488.226 7.869 1.039 7.732 1.08 9.987 8.607 9.724 32.459 24.404 62.408 46.778 88.045 16.308 18.685 35.201 34.452 57.2 46.301 6.608 3.558 13.263 6.96 20.096 10.053 1.783.807 4.315 1.203 4.32 4.062-7.4-.973-14.855-1.746-21.859-4.539-2.364-.943-3.846-.462-4.725 1.846-6.163 16.187-18.65 16.24-32.402 10.429-8.621-3.643-15.964-9.472-23.723-14.576-8.297-5.266-15.773-11.597-23.242-17.933-25.395-21.539-44.795-47.833-60.146-77.133-10.614-20.258-18.494-41.684-24.788-63.685-3.897-13.624-7.018-27.429-9.996-41.271-.453-2.104-1.029-4.22-.765-6.423.567-3.842.733-7.678-.136-11.503-.562-11.805-.393-23.571.306-35.399.836-14.144 2.121-28.204 4.266-42.183 5.662-36.897 15.492-72.594 30.874-106.702 11.427-25.337 25.373-49.112 43.246-70.456 12.205-14.576 25.805-27.803 39.789-40.669 14.166-13.034 29.623-24.219 46.217-33.922 7.806-4.565 16.214-7.753 24.463-11.321 3.547-2.624 7.668-1.753 11.605-1.845 7.017-.165 8.346-1.037 9.793-7.908.67-3.177 2.809-4.811 5.229-6.296 9.997-6.138 20.728-10.629 31.947-13.976 24.684-7.366 49.957-11.002 75.62-12.971 57.999-4.45 111.407 10.818 162.564 36.502 26.375 13.242 50.073 30.344 72.075 49.886 2.838 2.521 5.862 4.969 7.598 8.516 4.336 27.131-7.252 54.438-28.728 67.748-2.271 1.407-4.694 2.522-7.045 3.778-2.301 1.229-2.733 2.804-.869 4.752 2.075 2.167 4.043 4.422 5.954 6.737 1.957 2.37 4.577 2.225 7.341 1.861 18.477-2.435 35.369-9.278 51.42-18.436 4.627-2.64 9.18-5.419 13.63-8.363 1.489-.984 2.947-2.294 5.012-1.681 6.57 6.186 10.085 14.405 14.371 22.048 22.294 39.755 34.751 82.594 40.83 127.656 4.734 35.092 6.709 70.256 5.546 105.565-.847 25.716-5.618 50.924-12.888 75.628-10.739 36.492-27.677 69.888-50.233 100.464-1.458 1.975-2.469 5.051-6.056 3.808"/>
    <path fill="#6E4100" d="M466.691 786.165c-1.893-.306-2.026-1.306-1.78-2.763 1.268-7.514 2.539-15.028 3.973-23.515 4.665 10.24 8.846 19.418 13.284 29.16-5.457-1.033-10.449-2.07-15.477-2.882zm-182.078-1.788c-2.432.168-4.841.672-7.896 1.122 2.79-6.046 5.309-11.505 7.828-16.964.335.042.67.083 1.005.125.566 3.867.891 7.791 1.78 11.583.635 2.708.19 3.932-2.717 4.134zm457.459 46.468c-8.74-11.166-19.441-20.057-31.448-27.407-3.117-1.908-3.917-2.822-1.192-6.224 7.956-9.928 10.557-21.325 4.857-33.125-5.501-11.387-15.958-15.136-27.898-14.587-27.915 1.283-53.021 10.356-74.644 28.286-2.072 1.719-3.329 1.735-5.519.617-20.936-10.688-37.85-25.75-50.437-45.664-20.623-32.625-31.985-68.826-41.071-105.914-.912-.713-.527-1.886-.914-2.708-2.773-5.9.548-8.265 5.314-10.703 18.668-9.548 35.387-21.934 50.163-36.75 27.249-27.325 45.487-60.045 56.59-96.85 2.956-9.797 2.829-9.644 12.937-10.784 15.441-1.742 27.234-9.082 34.31-23.29 7.159-14.374 7.089-29.592 4.947-44.921-2.762-19.753-14.902-33.408-36.944-32.756-4.254.126-2.361-3.822-3.025-5.917-.778-2.455.938-2.918 3.109-3.114 6.263-.566 9.463-3.785 9.171-8.85-.297-5.151-3.726-7.766-10.298-7.471-21.033.945-41.4-2.995-61.52-8.468-45.326-12.328-88.003-31.246-129.869-52.245-26.236-13.161-50.29-29.337-71.579-49.557-28.635-27.2-51.651-58.646-70.177-93.435-4.145-7.782-7.907-15.768-11.818-23.674-2.137-4.321-5.81-5.273-10.085-4.395-4.039.831-6.229 4.128-5.77 7.674.526 4.059-1.646 4.521-4.308 5.499-43.278 15.9-80.238 40.92-109.291 76.914-38.323 47.477-56.617 102.957-63.748 162.704-.41 3.432-1.377 4.348-4.755 4.445-16.561.477-27.773 9.461-32.415 25.342-1.222 4.182-2.014 8.426-2.427 12.714-1.095 11.363-.695 22.695 3.219 33.52 6.792 18.782 20.667 28.421 40.363 29.662 4.443.28 5.899 2.11 7.093 6.203 19.522 66.916 59.185 116.847 123.569 145.805 2.161.972 4.853 1.161 6.26 3.526-8.192 35.589-19.201 70.129-37.698 101.913-12.881 22.136-30.354 39.42-53.278 51.081-2.55 1.298-4.143 1.686-6.825-.515-22.124-18.151-47.738-27.341-76.261-27.89-15.458-.297-26.159 8.604-28.347 22.669-1.404 9.025 1.092 17.396 6.851 24.234 3.344 3.971 2.551 5.068-1.39 7.532-17.655 11.039-32.714 24.708-40.872 44.46-16.062 38.886 8.143 87.356 49.978 99.355 31.86 9.138 62.253 3.969 91.003-11.789 3.578-1.961 4.82-1.237 6.577 1.924 5.49 9.875 11.408 19.513 16.844 29.416 2.291 4.173 5.167 5.657 9.966 5.653 127.615-.126 255.231-.131 382.846.01 5.031.006 7.974-1.656 10.356-5.909 6.986-12.472 14.363-24.725 21.323-37.21 1.8-3.23 2.881-3.613 6.01-1.33 26.666 19.455 56.603 26.742 89.139 22.239 23.944-3.314 43.291-14.648 55.952-35.903 16.97-28.488 16.226-59.578-2.924-84.042"/>
    <path fill="#6E4100" d="M644.917 602.98c1.907.371 2.58-1.099 3.45-2.298 22.938-31.613 40.929-65.666 51.812-103.364 9.913-34.342 13.736-69.352 12.789-104.985-1.235-46.485-5.716-92.541-19.114-137.299-9.307-31.091-22.943-60.23-41.193-87.14-1.728-.54-2.592-1.988-3.536-3.355-11.813-17.125-24.727-33.336-39.738-47.798-1.462-1.408-2.566-3.025-3.496-4.795C595.402 100.22 583 90.672 570.397 81.451c-45.581-33.348-96.504-53.862-152.284-62.244-26.545-3.988-53.117-2.301-79.573 1.214-21.959 2.918-43.605 7.332-64.252 15.7-5.557 2.252-10.931 4.898-16.063 8.019-3.15 1.916-5.808 3.622-5.617 8.358.161 3.984-3.14 6.436-7.394 6.594-3.492.13-7 .241-10.484.056-1.742-.092-2.875.337-3.672 1.814-8.854.221-17.352 2.47-25.752 4.92-26.123 7.619-48.334 21.965-68.161 40.284-25.308 23.385-45.537 50.711-62.441 80.605-19.59 34.644-31.698 71.738-36.526 111.241-1.778 14.541-2.991 29.174-2.679 43.757.38 17.761 1.977 35.513 4.918 53.098.598 3.578 1.524 7.137 1.511 10.81-.012 2.069.989 4.104.216 6.2 7.089 37.369 17.232 73.781 34.427 107.907 18.813 37.338 44.654 68.815 78.677 93.361 1.917 1.383 3.558 2.998 4.865 4.961.656 4.203.279 8.064-3.855 10.459-4.348 2.52-7.873.539-11.419-2.057-45.835-33.571-77.418-77.823-97.001-130.741-19.021-51.399-29.846-104.499-30.032-159.472-.261-77.548 25.776-145.907 73.119-206.639 22.549-28.925 48.699-53.773 81.806-70.436 18.307-9.214 37.655-14.935 58.199-16.248 1.498-.096 2.867-.206 4.047-1.463 13.125-13.987 30.301-20.764 48.002-26.277C314.006 5.568 345.938.848 378.357.637c82.856-.538 155.312 28.506 218.659 80.45 64.307 52.732 104.368 120.771 121.317 202.15 6.453 30.986 9.375 62.486 11.046 94.106 3.252 61.539-5.977 120.701-32.95 176.559-10.084 20.883-22.467 40.371-36.476 58.83-3.343 4.406-7.418 8.117-11.976 11.233-4.352 2.976-9.175 2.242-11.959-1.604-2.7-3.728-1.809-8.649 2.045-11.976 2.554-2.204 6.119-3.506 6.854-7.405"/>
  </g>
  <path fill="#FF7164" d="M102.23 729.157c-24.633-1.548-47.557-20.971-51.852-43.89-1.046-5.581-.591-11.059 1.989-16.043 1.615-3.121.651-3.709-2.178-4.639-12.368-4.065-23.43-10.325-31.863-20.51-12.61-15.23-15.255-32.77-11.499-51.639.966-4.855 4.893-7.291 9.595-6.541 4.345.693 7.163 4.107 6.616 9.018-.851 7.632-1.735 15.189.221 22.792 3.514 13.658 12.687 22.273 24.947 28.096 8.505 4.04 17.609 6.024 26.923 6.853 4.937.439 7.933 2.902 8.435 7.559.478 4.43-1.96 7.338-6.289 8.995-11.145 4.265-13.525 10.514-7.62 20.983 7.431 13.173 18.897 20.711 33.961 22.499 6.939.823 10.593 3.924 10.057 8.987-.569 5.373-4.463 7.918-11.443 7.48m632.762-107.379c-.172 13.168-5.922 24.009-14.243 33.724-5.877 6.862-12.587 12.843-20.163 17.765-2.323 1.509-2.611 2.492-1.02 4.931 5.146 7.889 4.643 16.055.093 24.047-2.923 5.135-7.11 9.218-11.71 12.84-9.879 7.778-20.874 13.607-32.565 18.127-5.839 2.257-10.433.673-12.26-3.931-1.972-4.971.277-9.162 6.239-11.635 10.799-4.479 21.148-9.745 30.066-17.452 1.498-1.294 2.926-2.723 4.14-4.282 4.08-5.237 3.704-8.025-1.498-12.126-1.043-.823-2.187-1.516-3.278-2.279-6.413-4.488-6.035-11.923 1.007-15.502 7.92-4.025 15.169-8.934 21.774-14.862 4.745-4.258 8.827-9.042 12.072-14.515 5.409-9.124 6.555-18.317.421-27.674-2.092-3.191-2.147-6.655.045-9.838 1.991-2.89 4.992-3.736 8.373-3.211 2.651.412 4.504 2.051 5.886 4.238 4.173 6.601 6.728 13.707 6.621 21.635"/>
  <path fill="#FEFEFE" d="M41.126 405.881c-4.339-23.275-7.095-46.728-6.677-70.426 1.727-97.94 41.151-178.132 115.188-241.433 21.174-18.103 46.11-29.506 74.023-33.469 2.42-.344 5.055-1.761 7.398.409-20.978 7.004-39.32 18.691-56.281 32.528-25.097 20.475-48.186 43.011-66.948 69.579-25.556 36.19-42.07 76.469-52.836 119.234-9.715 38.592-14.063 77.799-12.941 117.596.197 2.072 1.439 4.306-.926 5.982"/>
  <path fill="#6E4100" d="M636.315 324.262c-9.35-1.614-18.287-4.782-27.146-8.141-35.226-13.358-66.707-33.143-95.94-56.622-37.778-30.344-70.583-65.313-97.224-105.91-.821-1.252-1.675-2.5-2.336-3.838-2.149-4.354-.958-9.192 2.741-11.475 4.048-2.498 8.771-1.405 11.671 3.025 5.748 8.779 11.483 17.568 17.955 25.832 40.572 51.805 88.718 94.623 147.915 124.249 13.425 6.718 27.434 11.959 41.971 15.771 3.042.797 6.266 1.46 7.946 4.612 1.504 2.821 1.752 5.764.04 8.556-1.688 2.753-4.161 4.285-7.593 3.941"/>
  <path fill="#FEFEFE" d="M605.891 111.946c8.558 6.925 15.574 15.344 22.673 23.655 8.736 10.227 16.983 20.843 24.097 32.292-20.892 14.703-43.227 26.01-68.883 29.742-4.327.63-7.694.347-10.192-3.82-2.038-3.402-7.44-5.934-6.998-9.187.447-3.294 6.32-3.797 9.641-5.856 18.749-11.628 27.554-29.038 29.643-50.435.534-5.467.323-10.927.019-16.391"/>
  <path fill="#E9D3BC" d="M41.126 405.881c1.39-1.827.295-4.038.926-5.982 1.142 3.983 1.502 7.973.092 11.977-.339-1.998-.679-3.996-1.018-5.995"/>
  <path fill="#FEF8EA" d="M605.921 485.988c-8.597 25.707-21.862 48.762-39.692 69.141-30.102 34.405-68.471 54.907-112.451 65.132-61.769 14.362-123.515 13.956-184.373-4.573-63.73-19.403-108.288-60.39-132.839-122.636-.362-.918-.586-1.891-.874-2.838 1.716-1.361 1.806-1.479 3.863.07 7.074 5.326 15.124 8.369 23.693 10.071 24.524 4.87 38.085-3.01 51.237-20.269 15.418-20.23 12.207-40.426-3.548-62.466-17.962-25.131-54.132-24.636-74.722.773-4.346 5.363-7.37 11.449-10.336 17.602-.812 1.686-1.077 4.05-3.804 3.956-9.017-47.529-4.239-94.038 10.232-139.858 12.934-40.953 33.071-77.601 64.111-107.762 25.106-24.395 54.44-41.89 87.349-53.622 3.07-1.095 3.95-.097 5.206 2.337 15.325 29.701 33.695 57.351 55.94 82.355 26.162 29.409 56.491 53.402 91.672 71.283 43.033 21.871 86.952 41.499 133.521 54.703 15.064 4.272 30.319 7.789 45.919 9.093 4.718.394 5.317 2.614 5.601 6.032 1.384 16.623 1.301 33.249-.275 49.85-.784 8.257-1.243 16.574-3.423 24.643-2.735-.138-2.612-2.599-3.332-4.259-4.753-10.951-10.269-21.352-20.649-28.127-15.057-9.826-30.936-10.36-46.351-1.838-19.079 10.546-29.086 27.809-30.059 49.301-.632 13.965 5.474 26.158 17.232 34.267 17.362 11.974 36.096 15.672 56.078 6.609 4.276-1.94 7.531-5.423 11.156-8.339 1.01-.812 2.171-3.351 3.918-.631"/>
  <path fill="#FFD900" d="M370.616 956.743c-60.825 0-121.651-.047-182.475.104-4.085.01-6.223-1.356-8.166-4.778-10.442-18.385-21.312-36.528-31.569-55.013-3.162-5.7-7.029-8.412-13.532-9.11-14.762-1.584-24.245-10.587-27.498-24.986-1.75-7.745.151-10.318 8.073-11.37 4.523-.601 8.955.226 13.427.424 1.818.08 3.107.775 3.501 2.825 1.38 7.176 6.377 11.508 12.269 14.95 12.837 7.496 27.108 10.93 41.425 14.013 30.977 6.671 62.412 9.891 93.974 12.202 44.066 3.226 88.187 3.864 132.31 2.423 50.427-1.648 100.734-4.968 150.086-16.538 11.346-2.66 22.532-5.954 32.734-11.83 6.062-3.492 11.314-7.784 12.649-15.199.311-1.728 1.374-2.125 2.724-2.359 6.255-1.087 12.545-1.756 18.833-.452 4.751.986 6.217 3.775 5.346 9.513-2.102 13.853-12.343 24.734-26.397 26.113-8.042.789-12.303 4.467-15.993 11.158-9.964 18.069-20.617 35.755-30.816 53.696-1.781 3.133-3.766 4.308-7.43 4.3-61.158-.121-122.317-.086-183.475-.086"/>
  <path fill="#FFD900" d="M369.977 882.247c-39.648.081-79.235-1.431-118.669-5.547-28.784-3.003-57.521-6.57-85.201-15.708-4.913-1.621-9.609-3.687-14.054-6.364-2.905-1.749-3.05-3.344-.592-5.731 7.663-7.442 16.964-12.296 26.452-16.76 29.249-13.763 60.191-22.154 91.82-28.135 12.574-2.378 25.294-3.984 37.947-5.942 3.537-.548 6.641-.743 4.41 4.477-.443 1.037-.401 2.285-.56 3.44-.754 5.49 1.941 9.444 6.974 10.244 4.664.742 8.463-2.144 9.473-7.336 2.456-12.626 8.321-23.064 20.491-28.329 14.453-6.253 29.336-5.706 43.656.517 9.457 4.11 14.295 12.103 15.059 22.455.146 1.984.104 4.066.719 5.913 1.306 3.929 4.268 5.882 8.439 5.554 4.154-.327 6.718-2.673 7.516-6.764.252-1.291.176-2.656.157-3.986-.094-6.863-.076-7.098 6.774-6.279 45.633 5.458 90.211 15.045 132.201 34.469 8.17 3.779 16.072 8.103 22.98 13.968 6.298 5.348 6.187 6.409-1.047 10.074-11.542 5.847-24.033 8.783-36.578 11.393-28.886 6.008-58.16 9.023-87.551 11.228-30.237 2.268-60.513 3.033-90.816 3.149"/>
  <path fill="#FEEC56" d="M470.073 633.56c-1.239 9.403-2.284 18.271-3.593 27.101-5.488 37.033-11.09 74.049-16.573 111.082-1.656 11.187-1.543 11.218-12.437 10.123-6.292-.632-12.575-1.357-18.871-1.945-1.593-.148-2.76-.638-3.793-1.937-8.734-10.979-20.746-15.943-34.162-17.574-17.081-2.077-33.638-.643-48.155 10.025-1.472 1.082-3.203 2.075-4.171 3.536-5.479 8.259-14.34 6.076-22.062 7.351-2.275.376-2.116-1.577-2.321-3.011-2.972-20.754-6.108-41.486-8.857-62.27-2.924-22.111-5.354-44.286-6.953-66.539-.249-3.465-.035-6.963-.035-10.999 7.279 1.272 14.542 2.529 21.8 3.811 9.127 1.612 9.112 1.622 10.17 11.063.982 8.764 1.968 17.528 3.007 26.286.798 6.721 3.672 9.247 10.591 9.253 26.664.023 53.327.021 79.99.001 6.931-.005 9.212-1.797 10.571-8.647 2.299-11.583 4.467-23.192 6.622-34.802.351-1.891.575-3.391 3.033-3.799 11.961-1.987 23.768-4.729 36.199-8.109"/>
  <path fill="#FF7164" d="M672.383 935.217c-23.453-.259-44.902-6.681-63.702-21.04-1.296-.989-4.205-1.464-3.234-3.692 1.028-2.359 1.736-5.233 5.334-5.918 8.395-1.599 16.304-4.496 23.129-9.963 11.065-8.865 16.794-20.539 17.739-34.431.973-14.292-8.263-24.105-23.068-25.269-7.495-.588-15.017-.433-22.313 1.309-3.874.925-6.739.623-9.224-2.554-1.979-2.531-6.95-3.163-6.617-6.537.26-2.633 3.451-5.1 5.596-7.403 11.196-12.023 20.842-25.53 34.59-35.1 16.481-11.472 35.058-16.546 54.667-18.469 5.309-.521 10.926-.109 13.948 5.529 2.461 4.592.584 11.64-4.044 16.456-2.1 2.185-4.493 3.946-7.394 4.945-3.814 1.314-6.326 3.874-6.505 7.974-.191 4.357 2.455 6.907 6.214 8.748 13.847 6.781 26.663 15.061 37.166 26.53 9.519 10.394 16.169 22.426 15.847 36.699-.501 22.134-12.797 49.753-43.002 58.761-8.189 2.443-16.546 3.677-25.127 3.425m-587.066-.004c-17.484.147-33.551-3.899-47.381-15.276-24.885-20.472-27.952-58.102-6.632-82.129 9.758-10.996 21.561-19.207 34.468-25.989 1.914-1.006 3.886-1.912 5.752-2.999 2.958-1.724 4.586-4.265 4.39-7.805-.194-3.513-1.931-5.958-5.165-7.266-6.323-2.555-11.147-6.551-13.183-13.333-2.145-7.146.692-12.246 8.022-13.708 9.087-1.813 17.805 1.05 26.534 2.815 15.647 3.162 29.689 10.221 41.646 20.548 10.048 8.677 18.467 19.13 27.12 29.245 1.297 1.516.597 2.243-.815 3.012-6.89 3.751-13.41 8.049-19.218 13.354-1.275 1.164-2.552 1.094-4.135.74-6.36-1.42-12.816-1.793-19.334-1.671-21.249.396-31.358 13.576-25.911 34.081 5.049 19.01 17.485 30.436 36.423 35.108 2.03.501 4.642.075 5.914 2.039 2.527 3.902 5.005 7.9 6.881 12.134.992 2.238-1.898 2.778-3.336 3.569-16.192 8.906-33.505 13.583-52.04 13.531"/>
  <path fill="#FEFEFE" d="M496.423 624.352c3.843 13.866 7.411 27.702 11.525 41.374 7.831 26.026 18.1 51.019 32.457 74.218 13.342 21.56 30.955 38.622 53.261 50.723 2.794 1.516 3.612 2.359 1.063 5.116-6.215 6.72-12.123 13.73-17.991 20.76-1.605 1.922-2.745 2.654-5.306 1.384-20.027-9.931-41.184-16.797-62.733-22.5-2.801-.741-4.592-1.986-6.03-4.516-11.544-20.303-20.398-41.743-27.463-63.964-1.611-5.066.213-9.918.866-14.787 3.537-26.386 7.575-52.707 10.797-79.129.808-6.628 5.318-6.925 9.554-8.679"/>
  <path fill="#FFDBC4" d="M122.075 439.951c3.011-3.993 4.449-8.807 6.857-13.118 7.643-13.688 18.734-23.289 33.845-27.612 18.782-5.373 38.775 2.43 50.247 18.876 6.578 9.431 11.163 19.661 12.67 31.07.955 7.23-.531 14.233-3.669 20.824-5.488 11.525-13.349 21.086-24.411 27.567-12.795 7.497-26.388 6.585-40.066 2.734-7.427-2.091-14.453-4.983-20.221-10.334-.61-.566-1.177-.389-1.635.256-6.687-16.173-10.754-33.055-13.617-50.263"/>
  <path fill="#FEFEFE" d="M280.077 730.566c.213 1.708-.292 3.257-.835 4.859-5.88 17.327-13.082 34.071-21.686 50.226-1.52 2.855-3.396 4.455-6.641 5.14-23.771 5.023-46.971 11.98-69.418 21.309-2.614 1.086-4.008.928-5.84-1.332-4.292-5.297-8.934-10.31-13.461-15.415-1.278-1.441-2.638-2.584.176-4.042 36.994-19.159 57.955-51.665 73.622-88.576 9.369-22.075 16.207-44.963 21.905-68.207.839-3.424 1.958-4.976 5.417-2.965.142.083.306.168.465.178 6.087.378 7.228 3.82 7.403 9.508.867 28.29 4.569 56.335 8.272 84.367.218 1.649.415 3.3.621 4.95"/>
  <path fill="#FFDBC4" d="M605.921 485.988c-3.854.156-5.552 3.661-7.891 5.719-10.445 9.193-22.824 10.484-35.589 8.987-10.946-1.283-21.292-4.941-29.955-12.338-8.652-7.388-14.102-16.39-15.708-27.831-3.896-27.772 18.874-57.202 43.42-62 19.49-3.81 40.349 5.735 50.325 24.807 2.675 5.116 4.948 10.443 7.405 15.673-2.074 16.154-6.22 31.778-12.007 46.983"/>
  <path fill="#FEFEFE" d="M374.195 672.091c-10.497 0-20.996-.074-31.492.052-2.668.032-3.762-.591-3.96-3.514-.439-6.469-1.098-12.949-2.186-19.337-.6-3.521.551-3.779 3.521-3.574 18.617 1.281 37.248 1.527 55.878.205 4.815-.341 9.643-.597 14.43-1.18 3.154-.384 3.572.46 2.88 3.466-1.565 6.799-2.801 13.684-3.883 20.58-.43 2.736-1.57 3.402-4.196 3.364-10.329-.15-20.661-.061-30.992-.062"/>
  <path fill="#FEF8EA" d="M662.749 415.158c-.216 6.77-.803 13.213-2.977 19.393-3.723 10.588-12.914 17.513-23.929 18.214-2.02.129-3.078.005-2.551-2.615 4.101-20.419 5.811-41.087 6.054-61.887.026-2.246.667-3.203 3.102-3.36 7.411-.478 13.285 2.789 16.484 9.601 3.115 6.633 3.482 13.774 3.817 20.654M97.342 384.964c2.401-.461 3.477.439 3.472 3.443-.036 20.505 1.805 40.85 5.871 60.963.661 3.274-.451 3.565-3.351 3.057-11.643-2.038-19.298-8.505-22.442-19.923-3.202-11.633-3.212-23.373.2-34.946 2.469-8.376 8.133-12.571 16.25-12.594"/>
  <path fill="#6E4100" d="M219.921 384.111c.583-9.963 4.725-19.458 13.649-26.458 2.332-1.828 2.71-2.898.742-5.373-4.276-5.38-5.761-11.9-6.215-18.631-.327-4.851 1.725-7.626 5.587-7.843 4.711-.265 6.556 2.449 6.765 6.731.292 6.006 1.836 11.426 6.611 15.572 1.49 1.293 2.804 1.817 4.867 1.566 16.602-2.021 30.889 7.841 34.802 23.85 1.247 5.101-.873 9.296-5.453 10.79-4.552 1.485-8.565-.675-10.569-5.69-3.923-9.819-9.061-13.67-16.644-12.474-9.208 1.454-16.394 9.035-17.196 18.147-.146 1.649-.055 3.356-.46 4.938-1.109 4.332-5.18 6.831-9.534 6.062-4.642-.821-7.045-4.258-6.952-11.187m304.112.953c.05 6.499-2.856 10.248-8.051 10.387-5.167.138-8.127-3.285-8.642-9.993-.732-9.534-6.215-16.312-15.183-18.769-7.176-1.966-13.316.645-16.735 7.243-.912 1.758-1.445 3.709-2.253 5.525-1.906 4.281-6.027 6.246-10.178 4.919-4.494-1.436-6.869-5.491-5.638-10.218 1.936-7.432 5.59-13.92 11.826-18.578 2.08-1.554 2.89-2.452 1.125-4.924-3.685-5.164-4.737-11.302-5.187-17.47-.282-3.867 1.119-6.994 5.6-7.368 4.402-.367 6.283 2.139 6.765 6.224.329 2.797.467 5.733 1.459 8.311 1.882 4.887 4.413 8.568 10.887 9.065 19.672 1.507 34.063 16.93 34.205 35.646m-147.139 145.95c-11.53-.22-23.255-2.617-33.585-9.905-5.862-4.138-10.24-9.435-12.655-16.25-1.191-3.363-.066-6.028 3.029-7.466 3.067-1.426 6.339-.822 7.702 2.383 5.68 13.352 17.279 17.211 30.046 18.842 10.211 1.305 20.266-.003 29.684-4.484 5.714-2.718 10.474-6.354 11.873-13.135.744-3.608 3.337-5.512 6.975-4.794 3.89.768 5.479 3.64 4.766 7.484-1.484 7.997-6.15 13.876-12.82 18.222-10.38 6.763-21.992 9.018-35.015 9.103M250.493 204.211c9.94.596 17.285 3.995 21.411 12.573 2.06 4.284 1.276 7.796-2.198 9.402-4.219 1.95-6.971.067-8.776-3.785-2.247-4.794-6.404-6.015-11.155-5.642-5.747.452-11.319 1.723-14.166 7.516-2.43 4.943-4.871 6.647-8.481 5.169-3.541-1.45-4.77-5.086-3.112-9.726 1.443-4.038 4.184-7.093 7.677-9.53 5.925-4.134 12.624-5.676 18.8-5.977M372.06 409.125c-2.485.161-4.716-.834-6.275-2.97-1.949-2.669-3.924-5.359-5.499-8.251-2.157-3.962-.843-8.624 2.73-10.977 3.589-2.363 8.284-1.743 11.127 1.799 2.065 2.571 4.015 5.312 5.528 8.23 3.088 5.954-.836 12.213-7.611 12.169m19.817 400.568c.002 5.423-2.873 8.944-7.625 9.338-5.104.423-8.753-2.597-9.135-8.247-.27-3.988-1.845-6.265-5.825-6.677-3.986-.413-6.779 1.277-8.154 5.054-.566 1.554-.75 3.245-1.301 4.806-1.476 4.178-4.708 6.149-8.9 5.602-4.161-.544-6.864-3.119-7.192-7.641-.912-12.576 10.148-24.154 23.56-24.636 14.045-.504 24.564 9.086 24.572 22.401"/>
</svg>